<mxfile host="app.diagrams.net" modified="2022-02-08T11:20:25.216Z" agent="5.0 (Windows NT 10.0; Win64; x64) AppleWebKit/537.36 (KHTML, like Gecko) Chrome/98.0.4758.82 Safari/537.36" etag="HdvKa_pEw78WBGEhxqxf" version="16.5.3" type="github">
  <diagram id="C5RBs43oDa-KdzZeNtuy" name="Page-1">
    <mxGraphModel dx="782" dy="428" grid="0" gridSize="10" guides="1" tooltips="1" connect="1" arrows="1" fold="1" page="1" pageScale="1" pageWidth="1169" pageHeight="827" background="none" math="0" shadow="0">
      <root>
        <mxCell id="WIyWlLk6GJQsqaUBKTNV-0" />
        <mxCell id="WIyWlLk6GJQsqaUBKTNV-1" parent="WIyWlLk6GJQsqaUBKTNV-0" />
        <mxCell id="tgTziuhSWTPW_sUbUEYL-1" value="Start" style="ellipse;whiteSpace=wrap;html=1;" vertex="1" parent="WIyWlLk6GJQsqaUBKTNV-1">
          <mxGeometry x="70" y="244" width="87" height="53" as="geometry" />
        </mxCell>
        <mxCell id="tgTziuhSWTPW_sUbUEYL-2" value="" style="endArrow=classic;html=1;rounded=0;" edge="1" parent="WIyWlLk6GJQsqaUBKTNV-1">
          <mxGeometry width="50" height="50" relative="1" as="geometry">
            <mxPoint x="113" y="297" as="sourcePoint" />
            <mxPoint x="113" y="350" as="targetPoint" />
          </mxGeometry>
        </mxCell>
        <mxCell id="tgTziuhSWTPW_sUbUEYL-3" value="The function for calculating the n&lt;br/&gt;th Fibonacci number takes as input&lt;br/&gt;an integer “n”. If “n” is less than or equal to 0, then 0 is returned&lt;br/&gt;as a result. Otherwise, if “n” is less than or equal to 2, then 1 is&lt;br/&gt;returned. Otherwise, in all the other cases, associate the value “1”&lt;br/&gt;to two distinct variables “a” and “b”. Then, repeat the following&lt;br/&gt;operations indefinitely until a value is returned. Set the variable&lt;br/&gt;“c” as the sum of “a” plus “b”. If “n” is less than or equal to “3”&lt;br/&gt;then return “c”, otherwise assign the value of “b” to “a” and the&lt;br/&gt;value of “c” to “b”, and finally decrease the value of “n” by 1&lt;br/&gt;before repeating.&lt;br/&gt;" style="text;html=1;align=center;verticalAlign=middle;resizable=0;points=[];autosize=1;strokeColor=none;fillColor=none;rotation=0;" vertex="1" parent="WIyWlLk6GJQsqaUBKTNV-1">
          <mxGeometry x="215" y="25" width="359" height="158" as="geometry" />
        </mxCell>
        <mxCell id="tgTziuhSWTPW_sUbUEYL-6" value="" style="shape=parallelogram;perimeter=parallelogramPerimeter;whiteSpace=wrap;html=1;fixedSize=1;" vertex="1" parent="WIyWlLk6GJQsqaUBKTNV-1">
          <mxGeometry x="60" y="351" width="97" height="47" as="geometry" />
        </mxCell>
        <mxCell id="tgTziuhSWTPW_sUbUEYL-7" value="Input number n" style="text;html=1;align=center;verticalAlign=middle;resizable=0;points=[];autosize=1;strokeColor=none;fillColor=none;" vertex="1" parent="WIyWlLk6GJQsqaUBKTNV-1">
          <mxGeometry x="55" y="398" width="91" height="18" as="geometry" />
        </mxCell>
        <mxCell id="tgTziuhSWTPW_sUbUEYL-8" value="" style="endArrow=classic;html=1;rounded=0;exitX=1;exitY=0.5;exitDx=0;exitDy=0;" edge="1" parent="WIyWlLk6GJQsqaUBKTNV-1" source="tgTziuhSWTPW_sUbUEYL-6">
          <mxGeometry width="50" height="50" relative="1" as="geometry">
            <mxPoint x="174" y="398" as="sourcePoint" />
            <mxPoint x="241" y="375" as="targetPoint" />
          </mxGeometry>
        </mxCell>
        <mxCell id="tgTziuhSWTPW_sUbUEYL-11" value="N is less or equal to 0" style="rhombus;whiteSpace=wrap;html=1;" vertex="1" parent="WIyWlLk6GJQsqaUBKTNV-1">
          <mxGeometry x="253" y="336" width="162" height="80" as="geometry" />
        </mxCell>
        <mxCell id="tgTziuhSWTPW_sUbUEYL-13" value="" style="endArrow=classic;html=1;rounded=0;exitX=0.5;exitY=0;exitDx=0;exitDy=0;" edge="1" parent="WIyWlLk6GJQsqaUBKTNV-1" source="tgTziuhSWTPW_sUbUEYL-11">
          <mxGeometry width="50" height="50" relative="1" as="geometry">
            <mxPoint x="295" y="349" as="sourcePoint" />
            <mxPoint x="334" y="284" as="targetPoint" />
          </mxGeometry>
        </mxCell>
        <mxCell id="tgTziuhSWTPW_sUbUEYL-14" value="yes" style="text;html=1;align=center;verticalAlign=middle;resizable=0;points=[];autosize=1;strokeColor=none;fillColor=none;" vertex="1" parent="WIyWlLk6GJQsqaUBKTNV-1">
          <mxGeometry x="336" y="298" width="29" height="18" as="geometry" />
        </mxCell>
      </root>
    </mxGraphModel>
  </diagram>
</mxfile>
